<svg width="844" height="642" viewBox="0 0 844 642" fill="none" xmlns="http://www.w3.org/2000/svg">
<path d="M832.9 249.1C830.3 214.3 821.1 184.7 805.5 161.2C799.9 152.7 793.4 144.7 786.1 137.5C786 137.4 785.9 137.3 785.8 137.2L737.7 79.6C737.6 79.5 737.6 79.4 737.5 79.3C721.5 57.3 700.3 40.2 674.3 28.3C650.7 17.5 623.7 11.4 594 10C592.6 9.9 591.3 9.9 590.1 9.9H519.5C485.9 10.4 453 20.7 424.5 39.8C422.6 41.1 420 40.9 418.3 39.3C400.4 22.3 377.8 12.2 352.8 10.2C350.6 10 348.4 9.9 346.3 9.9H117.1C114.9 9.9 112.7 10 110.6 10.2C80.5 12.6 53.5 26.9 34.8 50.5C18.5 70.9 10 95.5 10 121.7V158.7C10 184.4 18.3 208.6 34 228.8L34.2 229C34.2 229.1 34.3 229.1 34.3 229.2C34.3 229.3 34.4 229.3 34.4 229.4L87.4 297.2C88.1 298.1 88.5 299.2 88.5 300.3V436.1C88.5 465 99.1 492.3 119 515C119 515 119 515.1 119.1 515.1L179.6 587C179.6 587 179.6 587.1 179.7 587.1C181.3 589.1 183 591 184.6 592.8C207.2 617.8 238.9 631.6 273.8 631.6H318.2C353.1 631.6 384.8 617.8 407.4 592.8C413.5 586 418.9 578.7 423.2 571.2C424 569.8 425.5 568.9 427.1 568.7C428.7 568.6 430.3 569.2 431.4 570.5C446.5 588.5 465.6 602.9 488.1 613.1C511.6 623.9 538.5 630 567.8 631.4C569 631.5 570.4 631.5 571.7 631.5H643.2C682.4 630.9 719.9 617.1 751.5 591.5C780.7 567.9 802.2 537.7 815.3 501.9C826.6 471.2 832.3 442.3 832.3 416.2C832.3 414.5 832.2 412.8 832.1 411.3C832.1 411.2 832.1 411.1 832.1 411C830.6 388 825.6 366.9 817.1 348.2C816.4 346.7 816.5 345 817.3 343.6C825.6 329.5 830.8 313.3 832.7 295.5C833 292.7 833.2 289.7 833.2 286.8V255.4C833.2 253.5 833.1 251.5 833 249.6C832.9 249.4 832.9 249.3 832.9 249.1ZM756.9 286.8C756.9 287 756.9 287.2 756.9 287.3C754.2 312.1 738.9 318.5 726.4 319.5C726.3 319.5 726.1 319.5 726 319.5H688.9C690 324.2 690.8 329.1 691.4 334.3C708.3 340.9 721.6 348.5 731.2 357C746 370.2 754.3 390 756 415.9C756 416 756 416.1 756 416.2C756 433.3 751.9 453.4 743.7 475.7C735.4 498.3 721.9 517.3 703.5 532.2C685 547.2 664.3 554.9 642 555.3H571.7C571.6 555.3 571.5 555.3 571.3 555.3C551.7 554.3 534.3 550.5 519.7 543.8C508.7 538.8 499.5 532.2 492 524C491.8 523.9 491.7 523.7 491.6 523.5L491.5 523.4C490.2 522 489 520.5 487.9 519.1L431.1 451C427.1 447.1 423.5 442.9 420.5 438.2C412.2 425.7 407.2 408.3 405.6 386.6C405.6 386.5 405.6 386.4 405.6 386.2V354.8C405.6 354.6 405.6 354.4 405.6 354.3C408.3 329.5 423.6 323.1 436.1 322.1C436.2 322.1 436.4 322.1 436.5 322.1H452.3L426.7 280.1C423.6 276.8 420.9 273.1 418.5 269C416.1 269.8 413.6 270.3 410.9 270.5C410.8 270.5 410.6 270.5 410.5 270.5H362.8V512.3C362.8 522.8 358.7 532.6 350.7 541.5C342.5 550.6 331.5 555.2 318.1 555.2H273.7C260.3 555.2 249.3 550.6 241.1 541.5C240.1 540.4 239.2 539.3 238.4 538.2L177 465.2C168.9 456.3 164.9 446.4 164.9 436V272.2L94.7 182.5C94.7 182.4 94.6 182.4 94.6 182.3C89.1 175.4 86.3 167.4 86.3 158.6V121.6C86.3 112.8 89.1 104.8 94.6 97.9C100.2 90.8 107.7 86.8 116.8 86.1C116.9 86.1 117.1 86.1 117.2 86.1H346.5C346.6 86.1 346.8 86.1 346.9 86.1C355.9 86.8 363.3 90.7 368.9 97.7C368.9 97.7 368.9 97.7 369 97.8L421.9 158C430.3 138.7 442.7 122.3 459 109.2C477.5 94.2 498.4 86.5 521 86.1H590.4C590.5 86.1 590.6 86.1 590.6 86.1C610.5 87 628.1 90.9 642.8 97.6C657.4 104.3 669 113.8 677.3 126L730.2 189.2C734.8 193.4 738.8 198.1 742.2 203.2C750.5 215.7 755.5 233.1 757.1 254.8C757.1 254.9 757.1 255 757.1 255.2V286.8H756.9Z" fill="#FCBA28"/>
<path d="M842.9 248.8C842.9 248.7 842.9 248.7 842.9 248.6C840.2 212 830.4 180.7 813.9 155.8C808 146.8 801.1 138.4 793.4 130.7L745.5 73.4C728.5 50.1 706 31.9 678.5 19.3C653.8 8 625.5 1.5 594.5 0.0999985C592.9 -1.52737e-06 591.5 0 590.2 0H519.6C485.3 0.5 451.7 10.6 422.4 29.4C403.3 12.4 379.7 2.4 353.8 0.300003C351.3 0.100003 348.8 0 346.5 0H117.1C114.6 0 112.1 0.100003 109.8 0.300003C76.9 2.9 47.5 18.6 27 44.4C9.3 66.6 0 93.4 0 121.8V158.8C0 186.7 9 213.1 26.2 235.1L26.6 235.5C26.6 235.6 26.7 235.6 26.7 235.7L78.7 302.1V436.1C78.7 467.4 90.1 497 111.7 521.5L172.1 593.3C173.8 595.5 175.6 597.5 177.3 599.4C201.8 626.6 236.1 641.5 273.9 641.5H318.3C356.1 641.5 390.4 626.5 414.9 599.4C419.9 593.9 424.4 588 428.3 582C443.6 598.8 462.3 612.3 483.9 622.1C508.6 633.4 536.7 639.9 567.3 641.3C568.7 641.4 570.2 641.4 571.7 641.4H643.3C684.8 640.8 724.4 626.2 757.9 599.1C788.5 574.3 811.1 542.7 824.8 505.2C836.5 473.3 842.4 443.3 842.4 416C842.4 414.1 842.3 412.3 842.2 410.6C842.2 410.5 842.2 410.4 842.2 410.3C840.7 387 835.7 365.4 827.4 346.2C835.7 331.4 840.9 314.6 842.8 296.4C843.1 293.2 843.3 289.9 843.3 286.6V255.2C843.2 253.2 843.1 251 842.9 248.8ZM833.2 286.8C833.2 289.7 833 292.7 832.7 295.5C830.8 313.3 825.6 329.5 817.3 343.6C816.5 345 816.4 346.7 817.1 348.2C825.6 366.9 830.6 388 832.1 411C832.1 411.1 832.1 411.2 832.1 411.3C832.2 412.9 832.3 414.5 832.3 416.2C832.3 442.3 826.6 471.2 815.3 501.9C802.2 537.7 780.7 567.8 751.5 591.5C719.8 617.1 682.3 631 643.2 631.5H571.7C570.3 631.5 569 631.5 567.8 631.4C538.4 630 511.6 623.8 488.1 613.1C465.6 602.8 446.6 588.5 431.4 570.5C430.4 569.3 428.8 568.6 427.1 568.7C425.5 568.8 424 569.8 423.2 571.2C418.8 578.7 413.5 586 407.4 592.8C384.8 617.8 353.1 631.6 318.2 631.6H273.7C238.8 631.6 207.1 617.8 184.5 592.8C182.9 591 181.3 589.1 179.6 587.1C179.6 587.1 179.6 587 179.5 587L119 515.1C119 515.1 119 515 118.9 515C98.9 492.3 88.4 465 88.4 436.1V300.2C88.4 299.1 88 298 87.3 297.1L34.3 229.3C34.3 229.3 34.2 229.2 34.2 229.1C34.2 229 34.1 229 34.1 228.9L33.9 228.7C18.2 208.5 9.9 184.2 9.9 158.6V121.6C9.9 95.5 18.5 70.8 34.7 50.4C53.4 26.8 80.3 12.5 110.5 10.1C112.6 9.9 114.8 9.8 117 9.8H346.3C348.4 9.8 350.6 9.9 352.8 10.1C377.7 12.1 400.4 22.2 418.3 39.2C420 40.8 422.6 41 424.5 39.7C453 20.6 485.9 10.3 519.5 9.8H590.1C591.3 9.8 592.5 9.8 594 9.9C623.7 11.3 650.7 17.5 674.3 28.2C700.2 40 721.5 57.2 737.5 79.2C737.6 79.3 737.6 79.4 737.7 79.5L785.8 137.1C785.9 137.2 786 137.3 786.1 137.4C793.4 144.7 799.9 152.7 805.5 161.1C821.1 184.6 830.3 214.2 832.9 249C832.9 249.1 832.9 249.2 832.9 249.3C833 251.3 833.1 253.2 833.1 255.1V286.8H833.2Z" fill="#231F20"/>
<path d="M742 203.3C738.6 198.1 734.6 193.5 730 189.3L677.1 126.1C668.8 114 657.2 104.4 642.6 97.7C627.9 91 610.3 87.1 590.4 86.2C590.3 86.2 590.2 86.2 590.2 86.2H520.8C498.2 86.5 477.3 94.3 458.8 109.3C442.6 122.4 430.1 138.8 421.7 158.1L368.8 97.9C368.8 97.9 368.8 97.9 368.7 97.8C363.1 90.9 355.7 87 346.7 86.2C346.6 86.2 346.4 86.2 346.3 86.2H117.1C117 86.2 116.8 86.2 116.7 86.2C107.6 86.9 100.1 90.9 94.5 98C89 104.9 86.2 112.8 86.2 121.7V158.7C86.2 167.5 89 175.5 94.5 182.4C94.5 182.5 94.6 182.5 94.6 182.6L164.8 272.3V436.1C164.8 446.6 168.9 456.4 176.9 465.3L238.3 538.3C239.2 539.4 240.1 540.5 241 541.6C249.2 550.7 260.2 555.3 273.6 555.3H318C331.4 555.3 342.4 550.7 350.6 541.6C358.7 532.7 362.7 522.8 362.7 512.4V270.5H410.4C410.5 270.5 410.7 270.5 410.8 270.5C413.5 270.3 416 269.8 418.4 269C420.8 273 423.5 276.7 426.6 280.1L452 321.9H436.2C436.1 321.9 435.9 321.9 435.8 321.9C423.4 322.9 408 329.3 405.3 354.1C405.3 354.3 405.3 354.5 405.3 354.6V386C405.3 386.1 405.3 386.2 405.3 386.4C406.9 408.1 411.9 425.5 420.2 438C423.3 442.6 426.8 446.9 430.8 450.8L487.6 518.9C488.8 520.4 490 521.8 491.2 523.2L491.3 523.3C491.4 523.5 491.6 523.6 491.7 523.8C499.2 531.9 508.4 538.6 519.4 543.6C534.1 550.3 551.4 554.2 571 555.1C571.1 555.1 571.2 555.1 571.4 555.1H641.7C664 554.8 684.7 547 703.2 532C721.5 517.2 735 498.2 743.4 475.5C751.6 453.2 755.7 433.2 755.7 416C755.7 415.9 755.7 415.8 755.7 415.7C754.1 389.8 745.7 370 730.9 356.8C721.3 348.3 707.9 340.7 691.1 334.1C690.6 328.9 689.7 324 688.6 319.3H725.7C725.8 319.3 726 319.3 726.1 319.3C738.5 318.3 753.9 311.9 756.6 287.1C756.6 286.9 756.6 286.7 756.6 286.6V255.2C756.6 255.1 756.6 255 756.6 254.8C755.3 233.2 750.3 215.9 742 203.3ZM681.8 340C681.8 355.9 677.8 374.7 670.1 395.9C662.4 416.8 650 434.4 633 448C616.3 461.5 597.6 468.6 577.7 468.8H507.6C489.3 467.9 473.1 464.3 459.6 458.2C446.4 452.2 435.9 443.5 428.6 432.5C421.3 421.5 416.8 405.8 415.3 385.8V354.8C416.9 340.2 423.6 332.9 436.4 331.8H506.2C519 332.9 525.7 340.2 527.3 354.8C527.4 364.4 530.1 371.8 535.4 376.7L535.5 376.8C542.1 382.5 549.4 382.5 555.6 376.7C555.9 376.5 556.1 376.2 556.3 375.9C561.2 369 563.8 359 564.1 346.4C564.1 346.3 564.1 346.1 564.1 346C563.7 338.6 560.7 332.1 555.2 326.7C551.8 323.4 542.6 317.8 501.3 306.5C472.3 298.6 450.9 288.6 437.7 276.8C424.9 265.5 417.9 248 416.7 224.9C416.4 209 420.2 190.2 428 169C435.7 148.1 448.1 130.5 465 116.9C481.7 103.4 500.5 96.4 520.8 96.1H590C608.6 97 624.9 100.6 638.4 106.7C651.6 112.7 662.1 121.4 669.4 132.4C676.7 143.4 681.2 159.1 682.7 179.1V210.1C681.1 224.7 674.4 232 661.6 233.1H590.4C577.4 232 570.7 224.7 569.3 210.1C569.3 198.1 566.8 191 561.6 187.7C554.8 182.4 547.5 182.5 541.5 188.1C541.2 188.4 540.9 188.8 540.6 189.2C536.4 196.2 534.2 205.7 533.9 218.4C533.9 218.5 533.9 218.7 533.9 218.8C534.3 226.2 537.3 232.7 542.8 238.1C546.2 241.4 555.4 247 596.7 258.3C625.7 266.2 647.1 276.2 660.3 288C673.1 299.5 680.3 316.9 681.8 340ZM96.2 121.7C96.2 115.1 98.2 109.4 102.3 104.2C106.2 99.3 111.1 96.7 117.3 96.2H346.1C352.3 96.7 357.2 99.4 361.1 104.2C365.2 109.4 367.2 115.1 367.2 121.7V158.7C367.2 165.3 365.2 171 361.1 176.2C357.2 181.1 352.3 183.7 346.1 184.3H293.7C290.9 184.3 288.7 186.5 288.7 189.3V436.1C288.7 444.1 285.6 451.5 279.1 458.6C272.8 465.6 264.5 469 253.9 469H209.5C198.9 469 190.6 465.6 184.3 458.6C177.9 451.5 174.7 444.1 174.7 436.1V189.2C174.7 186.4 172.5 184.2 169.7 184.2H117.2C111 183.7 106.1 181 102.2 176.1C98.1 171 96.1 165.2 96.1 158.6V121.7H96.2Z" fill="#231F20"/>
<path d="M102.3 176.1C106.2 181 111.1 183.6 117.3 184.2H169.8C172.6 184.2 174.8 186.4 174.8 189.2V436C174.8 444 177.9 451.4 184.4 458.5C190.7 465.5 198.9 468.9 209.6 468.9H254C264.6 468.9 272.9 465.5 279.2 458.5C285.6 451.4 288.8 444 288.8 436V189.2C288.8 186.4 291 184.2 293.8 184.2H346.3C352.5 183.7 357.4 181 361.3 176.1C365.4 171 367.4 165.2 367.4 158.6V121.6C367.4 115 365.4 109.3 361.3 104.1C357.4 99.2 352.5 96.6 346.3 96.1H117.3C111.1 96.6 106.2 99.3 102.3 104.1C98.2 109.2 96.2 115 96.2 121.6V158.6C96.2 165.3 98.2 171 102.3 176.1Z" fill="#F3EED4"/>
<path d="M660.4 288.1C647.1 276.4 625.7 266.4 596.7 258.5C555.4 247.2 546.1 241.6 542.8 238.3C537.3 232.9 534.3 226.4 533.9 219C533.9 218.9 533.9 218.7 533.9 218.6C534.2 205.9 536.4 196.3 540.6 189.4C540.8 189 541.1 188.6 541.5 188.3C547.5 182.7 554.9 182.5 561.6 187.9C566.8 191.2 569.2 198.3 569.3 210.3C570.6 224.9 577.4 232.2 590.4 233.3H661.6C674.4 232.2 681.1 224.9 682.7 210.3V179.3C681.2 159.4 676.7 143.7 669.4 132.6C662.1 121.6 651.7 112.9 638.4 106.9C624.9 100.7 608.6 97.2 590 96.3H520.8C500.5 96.6 481.7 103.6 465 117.1C448.1 130.8 435.6 148.3 428 169.2C420.2 190.4 416.5 209.2 416.7 225.1C417.9 248.2 424.9 265.7 437.7 277C450.9 288.8 472.3 298.7 501.3 306.7C542.6 318 551.9 323.6 555.2 326.9C560.7 332.3 563.7 338.8 564.1 346.2C564.1 346.3 564.1 346.5 564.1 346.6C563.8 359.3 561.1 369.2 556.3 376.1C556.1 376.4 555.9 376.7 555.6 376.9C549.4 382.7 542.1 382.7 535.5 377L535.4 376.9C530.1 372 527.4 364.6 527.3 355C525.7 340.4 519 333.1 506.2 332H436.4C423.6 333.1 416.9 340.4 415.3 355V386C416.8 405.9 421.2 421.6 428.6 432.7C435.9 443.7 446.3 452.4 459.6 458.4C473.1 464.6 489.2 468.1 507.6 469H577.7C597.6 468.7 616.3 461.7 633 448.2C649.9 434.5 662.4 417 670.1 396.1C677.8 374.9 681.8 356.1 681.8 340.2C680.3 316.9 673.1 299.5 660.4 288.1Z" fill="#F3EED4"/>
</svg>
